<svg xmlns="http://www.w3.org/2000/svg" xmlns:xlink="http://www.w3.org/1999/xlink" xmlns:lucid="lucid" width="4042" height="1822"><g transform="translate(1051.6666666666665 451)" lucid:page-tab-id="0_0"><path d="M-1500-500h4500v2000h-4500z" fill="#fff"/><path d="M1488.47-425.26a56.48 56.48 0 0 0 11.86 1.26h1483a6 6 0 0 1 6 6v1782a6 6 0 0 1-6 6h-4028a6 6 0 0 1-6-6V-444a6 6 0 0 1 6-6h2412a56.48 56.48 0 0 1 11.87 1.26zM-1050.67-424h2545" stroke="#000" stroke-width="2" fill="#fff"/><use xlink:href="#a" transform="matrix(1,0,0,1,-1042.6666666666665,-450) translate(0 21.52777777777778)"/><use xlink:href="#b" transform="matrix(1,0,0,1,-1042.6666666666665,-450) translate(84.2556423611111 21.52777777777778)"/><use xlink:href="#c" transform="matrix(1,0,0,1,-1042.6666666666665,-450) translate(115.2886284722222 21.52777777777778)"/><path d="M-257.43 592.36a17.72 17.72 0 0 0 10.76 3.64h410a6 6 0 0 1 6 6v502a6 6 0 0 1-6 6h-1128a6 6 0 0 1-6-6V576a6 6 0 0 1 6-6h672a17.72 17.72 0 0 1 10.77 3.64zM-970.67 596h718" stroke="#000" stroke-width="2" fill="#fff"/><use xlink:href="#d" transform="matrix(1,0,0,1,-962.6666666666665,570) translate(0 21.52777777777778)"/><path d="M2240.47 512.5a18.55 18.55 0 0 0 10.86 3.5h432a6 6 0 0 1 6 6v602a6 6 0 0 1-6 6h-1188a6 6 0 0 1-6-6V496a6 6 0 0 1 6-6h708a18.55 18.55 0 0 1 10.87 3.5zm-751.14 3.5h756" stroke="#000" stroke-width="2" fill="#fff"/><use xlink:href="#e" transform="matrix(1,0,0,1,1497.3333333333335,490) translate(0 21.52777777777778)"/><path d="M951.9-327.64a17.72 17.72 0 0 0 10.77 3.64h410a6 6 0 0 1 6 6v562a6 6 0 0 1-6 6h-1128a6 6 0 0 1-6-6v-588a6 6 0 0 1 6-6h672a17.72 17.72 0 0 1 10.76 3.64zM238.67-324h718" stroke="#000" stroke-width="2" fill="#fff"/><use xlink:href="#f" transform="matrix(1,0,0,1,246.66666666666742,-350) translate(0 21.52777777777778)"/><path d="M522.72 254v50m0 50v50a6 6 0 0 1-6 6h-59.96m-59.96 0H276.88m-59.96 0H97m-59.95 0H-82.87m-59.96 0h-119.92m-59.96 0h-59.97a6 6 0 0 0-6 6v111.76" stroke="#5e5e5e" stroke-width="6" fill="none"/><path d="M525.7 254.08h-5.96V251h5.95z" stroke="#5e5e5e" stroke-width=".05" fill="#5e5e5e"/><path d="M-388.67 559.3l-9.27-28.54h18.54z" stroke="#5e5e5e" stroke-width="6" fill="#5e5e5e"/><path d="M1094.62 254v110a6 6 0 0 0 6 6h62.7m62.7 0h125.43m62.7 0h125.42m62.7 0h125.43m62.7 0h125.42m62.7 0h62.72a6 6 0 0 1 6 6v71.76" stroke="#5e5e5e" stroke-width="6" fill="none"/><path d="M1097.6 254.08h-5.96V251h5.95z" stroke="#5e5e5e" stroke-width=".05" fill="#5e5e5e"/><path d="M2047.24 479.3l-9.27-28.54h18.54z" stroke="#5e5e5e" stroke-width="6" fill="#5e5e5e"/><path d="M808.67 254v64.8m0 64.83v64.8" stroke="#5e5e5e" stroke-width="6" fill="none"/><path d="M811.64 254.08h-5.95V251h5.94z" stroke="#5e5e5e" stroke-width=".05" fill="#5e5e5e"/><path d="M809.18 479.3l-9.74-28.38 18.53-.3z" stroke="#5e5e5e" stroke-width="6" fill="#5e5e5e"/><path d="M-400.67 1114v43.33m0 43.34V1244a6 6 0 0 0 6 6h62.8m62.8 0h125.6m62.78 0H44.9m62.8 0h125.6m62.8 0h125.58m62.8 0h62.8a6 6 0 0 0 6-6v-71.92" stroke="#5e5e5e" stroke-width="6" fill="none"/><path d="M-397.7 1114.08h-5.94V1111h5.95z" stroke="#5e5e5e" stroke-width=".05" fill="#5e5e5e"/><path d="M553.4 1140.7l9.16 28.58-18.54-.08z" stroke="#5e5e5e" stroke-width="6" fill="#5e5e5e"/><path d="M1125.22 1134v110a6 6 0 0 0 6 6h63.48m63.47 0h126.95m63.47 0h126.94m63.48 0h126.94m63.48 0h126.94m63.48 0h63.47a6 6 0 0 0 6-6v-71.76" stroke="#5e5e5e" stroke-width="6" fill="none"/><path d="M1128.2 1134.08h-5.95V1131h5.95z" stroke="#5e5e5e" stroke-width=".05" fill="#5e5e5e"/><path d="M2089.33 1140.7l9.27 28.54h-18.54z" stroke="#5e5e5e" stroke-width="6" fill="#5e5e5e"/><path d="M828.24-253.4a8.12 8.12 0 0 0 7.76 5.73h95.33a6 6 0 0 1 6 6v102a6 6 0 0 1-6 6H654a6 6 0 0 1-6-6v-128a6 6 0 0 1 6-6h162a8.12 8.12 0 0 1 7.76 5.74zM648-247.67h182" stroke="#000" stroke-width="2" fill="#fff"/><use xlink:href="#g" transform="matrix(1,0,0,1,656.0000000000009,-273.66884463288875) translate(0 20.760416666666668)"/><use xlink:href="#h" transform="matrix(1,0,0,1,656.0000000000009,-273.66884463288875) translate(65.02083333333334 20.760416666666668)"/><path d="M650.5 50.4a8.74 8.74 0 0 0 8.17 5.6h114a6 6 0 0 1 6 6v105.67a6 6 0 0 1-6 6h-328a6 6 0 0 1-6-6V36a6 6 0 0 1 6-6h192a8.74 8.74 0 0 1 8.15 5.6zM438.68 56h214" stroke="#000" stroke-width="2" fill="#fff"/><use xlink:href="#i" transform="matrix(1,0,0,1,446.6666666666674,30) translate(0 20.760416666666668)"/><use xlink:href="#j" transform="matrix(1,0,0,1,446.6666666666674,30) translate(77.03125 20.760416666666668)"/><path d="M1050.5 50.4a8.74 8.74 0 0 0 8.17 5.6h114a6 6 0 0 1 6 6v105.67a6 6 0 0 1-6 6h-328a6 6 0 0 1-6-6V36a6 6 0 0 1 6-6h192a8.74 8.74 0 0 1 8.15 5.6zM838.68 56h214" stroke="#000" stroke-width="2" fill="#fff"/><use xlink:href="#k" transform="matrix(1,0,0,1,846.6666666666674,30) translate(0 20.760416666666668)"/><path d="M719.3-131.67v12.3m0 12.3v24.62m0 12.3v12.32a6 6 0 0 1-6 6h-11.04m-11.04 0h-22.1m-11.03 0H636m-11.03 0h-11.04a6 6 0 0 0-6 6v9.38m0 9.4V-8.3m0 9.4v9.38" stroke="#5e5e5e" stroke-width="2" fill="none"/><path d="M720.27-131.64h-1.94v-1.03h1.94z" stroke="#5e5e5e" stroke-width=".05" fill="#5e5e5e"/><path d="M607.93 25.76L603.3 11.5h9.27z" stroke="#5e5e5e" stroke-width="2" fill="#5e5e5e"/><path d="M866.03-131.67v12.3m0 12.3v24.62m0 12.3v12.32a6 6 0 0 0 6 6h9.13m9.13 0h18.24m9.13 0h18.26m9.12 0h18.26m9.14 0h18.25m9.12 0h9.13a6 6 0 0 1 6 6v9.38m0 9.4V-8.3m0 9.4v9.38" stroke="#5e5e5e" stroke-width="2" fill="none"/><path d="M867-131.64h-1.94v-1.03H867z" stroke="#5e5e5e" stroke-width=".05" fill="#5e5e5e"/><path d="M1014.95 25.76l-4.64-14.26h9.28z" stroke="#5e5e5e" stroke-width="2" fill="#5e5e5e"/><path d="M1789.57 630.26a8.12 8.12 0 0 0 7.76 5.74h95.34a6 6 0 0 1 6 6v102a6 6 0 0 1-6 6h-277.34a6 6 0 0 1-6-6V616a6 6 0 0 1 6-6h162a8.12 8.12 0 0 1 7.77 5.74zM1609.33 636h182" stroke="#000" stroke-width="2" fill="#fff"/><use xlink:href="#l" transform="matrix(1,0,0,1,1617.3333333333335,610) translate(0 20.760416666666668)"/><path d="M-730.43 910.26a8.12 8.12 0 0 0 7.76 5.74h95.34a6 6 0 0 1 6 6v102a6 6 0 0 1-6 6h-277.34a6 6 0 0 1-6-6V896a6 6 0 0 1 6-6h162a8.12 8.12 0 0 1 7.77 5.74zM-910.67 916h182" stroke="#000" stroke-width="2" fill="#fff"/><use xlink:href="#m" transform="matrix(1,0,0,1,-902.6666666666665,890) translate(0 20.760416666666668)"/><path d="M-90.43 690.26a8.12 8.12 0 0 0 7.76 5.74h95.34a6 6 0 0 1 6 6v102a6 6 0 0 1-6 6h-277.34a6 6 0 0 1-6-6V676a6 6 0 0 1 6-6h162a8.12 8.12 0 0 1 7.77 5.74zM-270.67 696h182" stroke="#000" stroke-width="2" fill="#fff"/><use xlink:href="#n" transform="matrix(1,0,0,1,-262.6666666666665,670) translate(0 19.790364583333336)"/><path d="M-654.43 690.26a8.12 8.12 0 0 0 7.76 5.74h95.34a6 6 0 0 1 6 6v102a6 6 0 0 1-6 6h-277.34a6 6 0 0 1-6-6V676a6 6 0 0 1 6-6h162a8.12 8.12 0 0 1 7.77 5.74zM-834.67 696h182" stroke="#000" stroke-width="2" fill="#fff"/><use xlink:href="#o" transform="matrix(1,0,0,1,-826.6666666666666,670) translate(0 20.760416666666668)"/><path d="M1789.57 800.26a8.12 8.12 0 0 0 7.76 5.74h95.34a6 6 0 0 1 6 6v102a6 6 0 0 1-6 6h-277.34a6 6 0 0 1-6-6V786a6 6 0 0 1 6-6h162a8.12 8.12 0 0 1 7.77 5.74zM1609.33 806h182" stroke="#000" stroke-width="2" fill="#fff"/><use xlink:href="#p" transform="matrix(1,0,0,1,1617.3333333333335,780) translate(0 20.760416666666668)"/><path d="M2449.57 630.26a8.12 8.12 0 0 0 7.76 5.74h95.34a6 6 0 0 1 6 6v102a6 6 0 0 1-6 6h-277.34a6 6 0 0 1-6-6V616a6 6 0 0 1 6-6h162a8.12 8.12 0 0 1 7.77 5.74zM2269.33 636h182" stroke="#000" stroke-width="2" fill="#fff"/><use xlink:href="#q" transform="matrix(1,0,0,1,2277.3333333333335,610) translate(0 20.760416666666668)"/><path d="M982.57 512.36a17.72 17.72 0 0 0 10.76 3.64h410a6 6 0 0 1 6 6v602a6 6 0 0 1-6 6h-1128a6 6 0 0 1-6-6V496a6 6 0 0 1 6-6h672a17.72 17.72 0 0 1 10.77 3.64zM269.33 516h718" stroke="#000" stroke-width="2" fill="#fff"/><use xlink:href="#r" transform="matrix(1,0,0,1,277.3333333333335,490) translate(0 21.52777777777778)"/><path d="M475.04 720.33A8.43 8.43 0 0 0 483 726h102.33a6 6 0 0 1 6 6v102a6 6 0 0 1-6 6H288a6 6 0 0 1-6-6V706a6 6 0 0 1 6-6h174a8.43 8.43 0 0 1 7.96 5.67zM282 726h195" stroke="#000" stroke-width="2" fill="#fff"/><use xlink:href="#s" transform="matrix(1,0,0,1,290,700) translate(0 20.760416666666668)"/><path d="M1268.5 715.4a8.74 8.74 0 0 0 8.17 5.6h114a6 6 0 0 1 6 6v102a6 6 0 0 1-6 6h-328a6 6 0 0 1-6-6V701a6 6 0 0 1 6-6h192a8.74 8.74 0 0 1 8.15 5.6zm-211.83 5.6h214" stroke="#000" stroke-width="2" fill="#fff"/><use xlink:href="#t" transform="matrix(1,0,0,1,1064.6666666666674,695) translate(0 20.760416666666668)"/><path d="M682.24 550.26A8.12 8.12 0 0 0 690 556h95.33a6 6 0 0 1 6 6v102a6 6 0 0 1-6 6H508a6 6 0 0 1-6-6V536a6 6 0 0 1 6-6h162a8.12 8.12 0 0 1 7.76 5.74zM502 556h182" stroke="#000" stroke-width="2" fill="#fff"/><use xlink:href="#u" transform="matrix(1,0,0,1,510,530) translate(0 20.760416666666668)"/><use xlink:href="#v" transform="matrix(1,0,0,1,514,564) translate(0 57.08376736111111)"/><use xlink:href="#w" transform="matrix(1,0,0,1,514,564) translate(57.70399305555556 57.08376736111111)"/><use xlink:href="#x" transform="matrix(1,0,0,1,514,564) translate(153.91710069444446 57.08376736111111)"/><path d="M475.04 880.33A8.43 8.43 0 0 0 483 886h102.33a6 6 0 0 1 6 6v102a6 6 0 0 1-6 6H288a6 6 0 0 1-6-6V866a6 6 0 0 1 6-6h174a8.43 8.43 0 0 1 7.96 5.67zM282 886h195" stroke="#000" stroke-width="2" fill="#fff"/><use xlink:href="#y" transform="matrix(1,0,0,1,290,860) translate(0 20.760416666666668)"/><path d="M1236.9 880.26a8.12 8.12 0 0 0 7.77 5.74H1340a6 6 0 0 1 6 6v102a6 6 0 0 1-6 6h-277.33a6 6 0 0 1-6-6V866a6 6 0 0 1 6-6h162a8.12 8.12 0 0 1 7.76 5.74zM1056.67 886h182" stroke="#000" stroke-width="2" fill="#fff"/><use xlink:href="#z" transform="matrix(1,0,0,1,1064.6666666666674,860) translate(0 20.760416666666668)"/><path d="M1049.57 550.26a8.12 8.12 0 0 0 7.76 5.74h95.34a6 6 0 0 1 6 6v102a6 6 0 0 1-6 6H875.33a6 6 0 0 1-6-6V536a6 6 0 0 1 6-6h162a8.12 8.12 0 0 1 7.77 5.74zM869.33 556h182" stroke="#000" stroke-width="2" fill="#fff"/><use xlink:href="#A" transform="matrix(1,0,0,1,877.3333333333335,530) translate(0 20.760416666666668)"/><use xlink:href="#v" transform="matrix(1,0,0,1,881.3333333333335,564) translate(0 57.08376736111111)"/><use xlink:href="#B" transform="matrix(1,0,0,1,881.3333333333335,564) translate(57.70399305555556 57.08376736111111)"/><use xlink:href="#x" transform="matrix(1,0,0,1,881.3333333333335,564) translate(127.99479166666667 57.08376736111111)"/><path d="M859.57 990.26a8.12 8.12 0 0 0 7.76 5.74h95.34a6 6 0 0 1 6 6v102a6 6 0 0 1-6 6H685.33a6 6 0 0 1-6-6V976a6 6 0 0 1 6-6h162a8.12 8.12 0 0 1 7.77 5.74zM679.33 996h182" stroke="#000" stroke-width="2" fill="#fff"/><use xlink:href="#m" transform="matrix(1,0,0,1,687.3333333333337,970) translate(0 20.760416666666668)"/><path d="M646.67 672v11m0 11v11a6 6 0 0 0 6 6h9.26m9.26 0h18.5m9.27 0h18.52m9.25 0h18.52m9.26 0h18.52m9.26 0h18.53m9.26 0h9.25a6 6 0 0 1 6 6v9.73m0 9.73v19.46m0 9.73v19.45m0 9.73v19.46m0 9.72v19.46m0 9.73v19.46m0 9.73v19.45m0 9.73v19.46m0 9.73v9.73" stroke="#5e5e5e" stroke-width="2" fill="none"/><path d="M647.64 672.03h-1.95V671h1.94z" stroke="#5e5e5e" stroke-width=".05" fill="#5e5e5e"/><path d="M825.35 965.76l-4.63-14.26H830z" stroke="#5e5e5e" stroke-width="2" fill="#5e5e5e"/><path d="M1014 672v11m0 11v11a6 6 0 0 1-6 6h-9.8m-9.83 0h-19.63m-9.8 0H939.3m-9.8 0h-19.64m-9.8 0H880.4m-9.8 0h-19.64m-9.82 0h-9.8a6 6 0 0 0-6 6v6.9m0 6.9v6.9" stroke="#5e5e5e" stroke-width="2" fill="none"/><path d="M1014.98 672.03H1013V671h1.96z" stroke="#5e5e5e" stroke-width=".05" fill="#5e5e5e"/><path d="M825.35 737.68v1.02M608.32 770h10.3m10.28 0h20.57m10.3 0h20.56m10.3 0h20.56m10.28 0h20.57m10.3 0h20.57m10.28 0h20.58m10.28 0h10.3" stroke="#5e5e5e" stroke-width="2" fill="none"/><path d="M594.33 770l13-7.5v15z" stroke="#5e5e5e" stroke-width="2" fill="#5e5e5e"/><path d="M824.33 770h1.02M1039.68 769.93h-10.16m-10.16 0h-20.32m-10.15 0h-20.33m-10.16 0h-20.3m-10.17 0h-20.3m-10.17 0h-20.32m-10.16 0h-20.3m-10.17 0h-10.15" stroke="#5e5e5e" stroke-width="2" fill="none"/><path d="M1053.67 769.93l-13 7.5v-15z" stroke="#5e5e5e" stroke-width="2" fill="#5e5e5e"/><path d="M826.38 769.93h-1.03M608.32 930h10.3m10.28 0h20.57m10.3 0h20.56m10.3 0h20.56m10.28 0h20.57m10.3 0h20.57m10.28 0h20.58m10.28 0h10.3" stroke="#5e5e5e" stroke-width="2" fill="none"/><path d="M594.33 930l13-7.5v15z" stroke="#5e5e5e" stroke-width="2" fill="#5e5e5e"/><path d="M824.33 930h1.02M1039.68 930h-10.16m-10.16 0h-20.32m-10.15 0h-20.33m-10.16 0h-20.3m-10.17 0h-20.3m-10.17 0h-20.32m-10.16 0h-20.3m-10.17 0h-10.15" stroke="#5e5e5e" stroke-width="2" fill="none"/><path d="M1053.67 930l-13 7.5v-15z" stroke="#5e5e5e" stroke-width="2" fill="#5e5e5e"/><path d="M826.38 930h-1.03" stroke="#5e5e5e" stroke-width="2" fill="none"/><path d="M2124.9 990.26a8.12 8.12 0 0 0 7.77 5.74H2228a6 6 0 0 1 6 6v102a6 6 0 0 1-6 6h-277.33a6 6 0 0 1-6-6V976a6 6 0 0 1 6-6h162a8.12 8.12 0 0 1 7.76 5.74zM1944.67 996h182" stroke="#000" stroke-width="2" fill="#fff"/><g><use xlink:href="#C" transform="matrix(1,0,0,1,1952.666666666667,970) translate(0 20.760416666666668)"/></g><path d="M2449.57 800.26a8.12 8.12 0 0 0 7.76 5.74h95.34a6 6 0 0 1 6 6v102a6 6 0 0 1-6 6h-277.34a6 6 0 0 1-6-6V786a6 6 0 0 1 6-6h162a8.12 8.12 0 0 1 7.77 5.74zM2269.33 806h182" stroke="#000" stroke-width="2" fill="#fff"/><g><use xlink:href="#D" transform="matrix(1,0,0,1,2277.3333333333335,780) translate(0 20.760416666666668)"/></g><path d="M-365.1 950.26a8.12 8.12 0 0 0 7.77 5.74H-262a6 6 0 0 1 6 6v102a6 6 0 0 1-6 6h-277.33a6 6 0 0 1-6-6V936a6 6 0 0 1 6-6h162a8.12 8.12 0 0 1 7.76 5.74zM-545.33 956h182" stroke="#000" stroke-width="2" fill="#fff"/><g><use xlink:href="#E" transform="matrix(1,0,0,1,-537.3333333333333,930) translate(0 19.089501953125)"/><use xlink:href="#F" transform="matrix(1,0,0,1,-537.3333333333333,930) translate(21.66064453125 19.089501953125)"/></g><path d="M-10.43 910.26A8.12 8.12 0 0 0-2.67 916h95.34a6 6 0 0 1 6 6v102a6 6 0 0 1-6 6h-277.34a6 6 0 0 1-6-6V896a6 6 0 0 1 6-6h162a8.12 8.12 0 0 1 7.77 5.74zM-190.67 916h182" stroke="#000" stroke-width="2" fill="#fff"/><g><use xlink:href="#G" transform="matrix(1,0,0,1,-182.66666666666652,890) translate(0 19.790364583333336)"/></g><defs><path d="M135 0v-1490h305v1237h643V0H135" id="H"/><path d="M633 22C291 22 81-200 81-553c0-345 210-579 537-579 292 0 525 185 525 567v84H378c7 183 109 277 260 277 105 0 184-46 216-132l272 51C1071-99 893 22 633 22zM380-669h474c-15-146-94-237-233-237-143 0-229 99-241 237" id="I"/><path d="M428-647V0H128v-1118h283l4 231c63-156 176-245 348-245 232 0 384 159 384 421V0H847v-659c0-139-76-222-202-222-128 0-217 86-217 234" id="J"/><path d="M537 19C279 19 81-185 81-557c0-382 206-575 454-575 190 0 278 113 318 202h10v-560h300V0H868v-179h-15C812-89 719 19 537 19zm92-241c153 0 240-134 240-336 0-203-86-334-240-334-158 0-240 138-240 334 0 197 84 336 240 336" id="K"/><path d="M440 22C227 22 68-92 68-313c0-250 202-322 422-343 195-21 271-24 271-105 0-95-63-149-175-149-116 0-187 57-211 129l-275-46c57-194 237-305 487-305 240 0 474 108 474 379V0H777v-155h-10C713-51 605 22 440 22zm85-211c140 0 238-93 238-211v-121c-37 26-156 42-222 51-111 16-185 59-185 149 0 87 70 132 169 132" id="L"/><path d="M572 22C302 22 117-98 78-306l279-48c29 105 101 156 224 156 114 0 185-48 185-115 0-118-228-130-337-155-215-49-322-150-322-317 0-215 187-347 470-347 265 0 424 116 466 298l-266 47c-24-76-87-130-196-130-98 0-174 46-174 113 0 56 38 95 144 117l201 40c216 44 320 143 320 302 0 220-207 367-500 367" id="M"/><g id="a"><use transform="matrix(0.010850694444444444,0,0,0.010850694444444444,0,0)" xlink:href="#H"/><use transform="matrix(0.010850694444444444,0,0,0.010850694444444444,12.565104166666666,0)" xlink:href="#I"/><use transform="matrix(0.010850694444444444,0,0,0.010850694444444444,25.80295138888889,0)" xlink:href="#J"/><use transform="matrix(0.010850694444444444,0,0,0.010850694444444444,39.63758680555555,0)" xlink:href="#K"/><use transform="matrix(0.010850694444444444,0,0,0.010850694444444444,53.64583333333333,0)" xlink:href="#L"/><use transform="matrix(0.010850694444444444,0,0,0.010850694444444444,66.54730902777777,0)" xlink:href="#M"/></g><path d="M443 0L31-1118h319c90 293 199 572 268 885 66-313 175-593 264-885h315L784 0H443" id="N"/><g id="b"><use transform="matrix(0.010850694444444444,0,0,0.010850694444444444,0,0)" xlink:href="#N"/><use transform="matrix(0.010850694444444444,0,0,0.010850694444444444,13.324652777777777,0)" xlink:href="#M"/></g><path d="M786 20C389 20 94-260 94-744c0-487 299-766 692-766 339 0 597 194 641 529h-309c-28-162-156-258-326-258-233 0-388 179-388 495 0 323 157 493 387 493 170 0 298-97 328-259h309c-34 277-266 530-642 530" id="O"/><path d="M499 418V299c80-5 216 24 216-62 0-44-25-60-89-60h-91l26-158C264-10 81-233 81-554c0-346 210-578 547-578 265 0 455 142 497 372l-279 52c-25-116-99-188-215-188-160 0-244 139-244 341 0 200 84 341 244 341 116 0 193-74 217-195l279 51C1088-140 923 0 685 20l-4 68c126-6 197 51 197 157 0 123-72 173-239 173H499" id="P"/><path d="M628 22C291 22 81-210 81-554c0-346 210-578 547-578 336 0 547 232 547 578 0 344-211 576-547 576zm0-236c160 0 242-146 242-341 0-197-82-341-242-341S387-753 387-555c0 195 81 341 241 341" id="Q"/><path d="M128 0v-1118h290v195h12c54-169 184-238 367-200v268c-27-8-86-15-130-15-138 0-239 95-239 234V0H128" id="R"/><g id="c"><use transform="matrix(0.010850694444444444,0,0,0.010850694444444444,0,0)" xlink:href="#O"/><use transform="matrix(0.010850694444444444,0,0,0.010850694444444444,16.438802083333332,0)" xlink:href="#L"/><use transform="matrix(0.010850694444444444,0,0,0.010850694444444444,29.340277777777775,0)" xlink:href="#P"/><use transform="matrix(0.010850694444444444,0,0,0.010850694444444444,42.63237847222222,0)" xlink:href="#L"/><use transform="matrix(0.010850694444444444,0,0,0.010850694444444444,55.533854166666664,0)" xlink:href="#K"/><use transform="matrix(0.010850694444444444,0,0,0.010850694444444444,69.54210069444444,0)" xlink:href="#Q"/><use transform="matrix(0.010850694444444444,0,0,0.010850694444444444,83.17057291666666,0)" xlink:href="#R"/><use transform="matrix(0.010850694444444444,0,0,0.010850694444444444,91.67751736111111,0)" xlink:href="#I"/><use transform="matrix(0.010850694444444444,0,0,0.010850694444444444,104.91536458333331,0)" xlink:href="#M"/></g><path d="M75-1237v-253h1217v253H837V0H531v-1237H75" id="S"/><path d="M128 0v-1118h278l12 217c60-163 185-234 319-234 143 0 236 81 288 251 63-172 205-251 359-251 205 0 357 138 357 381V0h-301v-697c0-126-76-187-177-187-114 0-184 79-184 196V0H789v-705c0-109-72-179-174-179-106 0-187 74-187 208V0H128" id="T"/><path d="M128 418v-1536h295v188h14c41-89 129-202 319-202 248 0 453 193 453 575 0 372-197 576-455 576-183 0-275-108-317-198h-9v597H128zm534-640c156 0 240-139 240-336 0-196-83-334-240-334-154 0-241 131-241 334 0 202 88 336 241 336" id="U"/><path d="M428-1490V0H128v-1490h300" id="V"/><path d="M683-1118v229H474v562c0 71 29 104 102 104 23 0 73-7 95-13l43 225C647 9 580 16 520 16 296 16 174-96 174-301v-588H20v-229h154v-266h300v266h209" id="W"/><g id="d"><use transform="matrix(0.010850694444444444,0,0,0.010850694444444444,0,0)" xlink:href="#S"/><use transform="matrix(0.010850694444444444,0,0,0.010850694444444444,13.096788194444445,0)" xlink:href="#I"/><use transform="matrix(0.010850694444444444,0,0,0.010850694444444444,26.334635416666664,0)" xlink:href="#T"/><use transform="matrix(0.010850694444444444,0,0,0.010850694444444444,46.61458333333333,0)" xlink:href="#U"/><use transform="matrix(0.010850694444444444,0,0,0.010850694444444444,60.62282986111111,0)" xlink:href="#V"/><use transform="matrix(0.010850694444444444,0,0,0.010850694444444444,66.64496527777777,0)" xlink:href="#L"/><use transform="matrix(0.010850694444444444,0,0,0.010850694444444444,79.54644097222221,0)" xlink:href="#W"/><use transform="matrix(0.010850694444444444,0,0,0.010850694444444444,87.46744791666666,0)" xlink:href="#I"/></g><path d="M135 0v-1490h468l242 684c30 94 76 293 111 455 34-161 80-360 110-455l238-684h470V0h-307c0-447-3-765 11-1227-122 503-246 788-395 1227H826C676-435 552-717 427-1215c15 453 11 775 11 1215H135" id="X"/><g id="e"><use transform="matrix(0.010850694444444444,0,0,0.010850694444444444,0,0)" xlink:href="#X"/><use transform="matrix(0.010850694444444444,0,0,0.010850694444444444,20.703125,0)" xlink:href="#Q"/><use transform="matrix(0.010850694444444444,0,0,0.010850694444444444,34.33159722222222,0)" xlink:href="#K"/><use transform="matrix(0.010850694444444444,0,0,0.010850694444444444,48.33984375,0)" xlink:href="#I"/><use transform="matrix(0.010850694444444444,0,0,0.010850694444444444,61.57769097222222,0)" xlink:href="#V"/></g><g id="f"><use transform="matrix(0.010850694444444444,0,0,0.010850694444444444,0,0)" xlink:href="#O"/><use transform="matrix(0.010850694444444444,0,0,0.010850694444444444,16.438802083333332,0)" xlink:href="#Q"/><use transform="matrix(0.010850694444444444,0,0,0.010850694444444444,30.067274305555554,0)" xlink:href="#R"/><use transform="matrix(0.010850694444444444,0,0,0.010850694444444444,38.57421875,0)" xlink:href="#I"/></g><path d="M789 20c-398 0-667-293-667-764 0-473 273-766 655-766 315 0 558 198 612 487h-196c-61-191-204-311-415-311-262 0-471 207-471 590 0 380 208 588 482 588 249 0 420-165 425-427H828v-166h572v163c0 370-256 606-611 606" id="Y"/><path d="M471 26C259 26 90-98 90-318c0-256 228-303 435-329 202-27 287-16 287-108 0-139-79-219-234-219-161 0-248 86-283 164l-173-57c86-203 278-265 451-265 150 0 419 46 419 395V0H815v-152h-12C765-73 660 26 471 26zm31-159c199 0 310-134 310-271v-155c-30 35-226 55-295 64-131 17-246 59-246 186 0 116 97 176 231 176" id="Z"/><path d="M158 0v-1118h175l1 205c55-151 181-225 313-225 147 0 245 90 285 228 53-141 190-228 352-228 194 0 352 125 352 384V0h-181v-749c0-161-105-225-225-225-151 0-243 103-243 244V0H807v-767c0-124-93-207-219-207-131 0-250 92-250 270V0H158" id="aa"/><path d="M628 24c-324 0-524-230-524-574 0-343 198-582 503-582 237 0 487 146 487 559v75H286c9 234 145 362 343 362 132 0 231-58 273-172l174 48C1024-91 857 24 628 24zM287-650h624c-17-190-120-322-304-322-192 0-309 151-320 322" id="ab"/><g id="g"><use transform="matrix(0.010416666666666668,0,0,0.010416666666666668,0,0)" xlink:href="#Y"/><use transform="matrix(0.010416666666666668,0,0,0.010416666666666668,15.916666666666668,0)" xlink:href="#Z"/><use transform="matrix(0.010416666666666668,0,0,0.010416666666666668,27.895833333333336,0)" xlink:href="#aa"/><use transform="matrix(0.010416666666666668,0,0,0.010416666666666668,46.583333333333336,0)" xlink:href="#ab"/></g><path d="M180 0v-1490h270l367 940c28 72 75 218 110 339 35-117 81-264 110-339l362-940h271V0h-187c2-448-5-837 7-1287-157 497-311 829-483 1287H842C666-458 514-784 354-1284c12 438 5 843 7 1284H180" id="ac"/><path d="M158 0v-1118h180V0H158zm91-1301c-68 0-125-53-125-119s57-119 125-119c69 0 126 53 126 119s-57 119-126 119" id="ad"/><path d="M338-670V0H158v-1118h173l1 207c72-158 192-221 342-221 226 0 378 139 378 422V0H872v-695c0-172-96-275-252-275-161 0-282 109-282 300" id="ae"/><g id="h"><use transform="matrix(0.010416666666666668,0,0,0.010416666666666668,0,0)" xlink:href="#ac"/><use transform="matrix(0.010416666666666668,0,0,0.010416666666666668,19.270833333333336,0)" xlink:href="#Z"/><use transform="matrix(0.010416666666666668,0,0,0.010416666666666668,31.250000000000004,0)" xlink:href="#ad"/><use transform="matrix(0.010416666666666668,0,0,0.010416666666666668,36.41666666666667,0)" xlink:href="#ae"/></g><path d="M657 26c-323 0-524-166-541-416h195c15 169 171 246 346 246 202 0 356-106 356-265 5-203-294-238-475-293-239-73-380-191-380-389 0-252 224-419 512-419 294 0 499 171 508 396H992c-17-145-151-228-328-228-193 0-321 102-321 242 0 156 175 211 284 241l149 41c160 44 422 134 422 412 0 244-197 432-541 432" id="af"/><path d="M613 24c-304 0-509-231-509-576 0-350 205-580 509-580 216 0 392 114 453 309l-173 49c-33-115-133-197-280-197-223 0-326 196-326 419 0 220 103 415 326 415 150 0 252-85 285-206l172 49C1010-95 832 24 613 24" id="ag"/><path d="M158 0v-1118h174v172h12c41-113 157-188 290-188 26 0 70 2 91 3v181c-11-2-60-10-108-10-161 0-279 109-279 260V0H158" id="ah"/><g id="i"><use transform="matrix(0.010416666666666668,0,0,0.010416666666666668,0,0)" xlink:href="#af"/><use transform="matrix(0.010416666666666668,0,0,0.010416666666666668,13.687500000000002,0)" xlink:href="#ag"/><use transform="matrix(0.010416666666666668,0,0,0.010416666666666668,25.875000000000004,0)" xlink:href="#ah"/><use transform="matrix(0.010416666666666668,0,0,0.010416666666666668,33.552083333333336,0)" xlink:href="#ab"/><use transform="matrix(0.010416666666666668,0,0,0.010416666666666668,45.989583333333336,0)" xlink:href="#ab"/><use transform="matrix(0.010416666666666668,0,0,0.010416666666666668,58.42708333333334,0)" xlink:href="#ae"/></g><path d="M611 442c-248 0-391-105-460-228l146-94c47 65 117 165 314 165 178 0 307-82 307-266v-224h-17C863-141 792-18 576-18c-268 0-472-195-472-546 0-346 197-568 476-568 216 0 288 133 326 193h17v-179h175V29c0 289-215 413-487 413zm-5-620c203 0 314-146 314-390 0-237-108-403-314-403-213 0-319 180-319 403 0 230 109 390 319 390" id="ai"/><g id="j"><use transform="matrix(0.010416666666666668,0,0,0.010416666666666668,0,0)" xlink:href="#ac"/><use transform="matrix(0.010416666666666668,0,0,0.010416666666666668,19.270833333333336,0)" xlink:href="#Z"/><use transform="matrix(0.010416666666666668,0,0,0.010416666666666668,31.250000000000004,0)" xlink:href="#ae"/><use transform="matrix(0.010416666666666668,0,0,0.010416666666666668,43.85416666666667,0)" xlink:href="#Z"/><use transform="matrix(0.010416666666666668,0,0,0.010416666666666668,55.83333333333334,0)" xlink:href="#ai"/><use transform="matrix(0.010416666666666668,0,0,0.010416666666666668,68.91666666666667,0)" xlink:href="#ab"/><use transform="matrix(0.010416666666666668,0,0,0.010416666666666668,81.35416666666667,0)" xlink:href="#ah"/></g><path d="M645 0H180v-1490h484c435 0 692 280 692 742 0 466-257 748-711 748zM370-168h263c363 0 539-218 539-580 0-358-176-574-521-574H370v1154" id="aj"/><path d="M678-1118v154H420V0H240v-964H20v-154h220v-149c0-194 155-293 318-293 85 0 141 18 168 30l-50 154c-19-6-47-17-97-17-111 0-159 58-159 166v109h258" id="ak"/><path d="M537 14c-226 0-379-139-379-422v-710h180v695c0 172 97 275 253 275 160 0 281-109 281-300v-670h181V0H879v-209C806-46 684 14 537 14" id="al"/><path d="M338-1490V0H158v-1490h180" id="am"/><path d="M598-1118v154H368v674c0 100 37 144 132 144 23 0 62-6 92-12L629-6c-37 13-88 20-134 20-193 0-307-107-307-290v-688H20v-154h168v-266h180v266h230" id="an"/><path d="M140 405l46-156c120 36 205 19 263-150l32-93L54-1118h197c107 313 237 620 324 950 87-331 219-637 326-950h196L606 167c-68 178-176 259-334 259-64 0-113-12-132-21" id="ao"/><path d="M613 24c-304 0-509-231-509-576 0-350 205-580 509-580 305 0 511 230 511 580 0 345-206 576-511 576zm0-161c226 0 329-195 329-415 0-222-103-419-329-419-223 0-326 196-326 419 0 220 103 415 326 415" id="ap"/><g id="k"><use transform="matrix(0.010416666666666668,0,0,0.010416666666666668,0,0)" xlink:href="#aj"/><use transform="matrix(0.010416666666666668,0,0,0.010416666666666668,15.395833333333336,0)" xlink:href="#ad"/><use transform="matrix(0.010416666666666668,0,0,0.010416666666666668,20.562500000000004,0)" xlink:href="#ak"/><use transform="matrix(0.010416666666666668,0,0,0.010416666666666668,27.625000000000007,0)" xlink:href="#ak"/><use transform="matrix(0.010416666666666668,0,0,0.010416666666666668,35.52083333333334,0)" xlink:href="#ad"/><use transform="matrix(0.010416666666666668,0,0,0.010416666666666668,40.68750000000001,0)" xlink:href="#ag"/><use transform="matrix(0.010416666666666668,0,0,0.010416666666666668,52.87500000000001,0)" xlink:href="#al"/><use transform="matrix(0.010416666666666668,0,0,0.010416666666666668,65.48958333333334,0)" xlink:href="#am"/><use transform="matrix(0.010416666666666668,0,0,0.010416666666666668,70.96875000000001,0)" xlink:href="#an"/><use transform="matrix(0.010416666666666668,0,0,0.010416666666666668,78.36458333333336,0)" xlink:href="#ao"/><use transform="matrix(0.010416666666666668,0,0,0.010416666666666668,90.35416666666667,0)" xlink:href="#af"/><use transform="matrix(0.010416666666666668,0,0,0.010416666666666668,104.04166666666667,0)" xlink:href="#ab"/><use transform="matrix(0.010416666666666668,0,0,0.010416666666666668,116.47916666666669,0)" xlink:href="#am"/><use transform="matrix(0.010416666666666668,0,0,0.010416666666666668,121.64583333333337,0)" xlink:href="#ab"/><use transform="matrix(0.010416666666666668,0,0,0.010416666666666668,134.08333333333337,0)" xlink:href="#ag"/><use transform="matrix(0.010416666666666668,0,0,0.010416666666666668,146.27083333333337,0)" xlink:href="#an"/><use transform="matrix(0.010416666666666668,0,0,0.010416666666666668,153.04166666666669,0)" xlink:href="#ap"/><use transform="matrix(0.010416666666666668,0,0,0.010416666666666668,165.83333333333334,0)" xlink:href="#ah"/></g><path d="M538 24C308 24 148-78 108-271l171-41c32 123 123 178 257 178 156 0 256-77 256-169 0-77-54-128-164-154l-186-44c-203-48-300-148-300-305 0-192 176-326 414-326 230 0 351 112 402 269l-163 42c-31-80-94-158-238-158-133 0-233 69-233 162 0 83 57 129 188 160l169 40c203 48 298 149 298 302 0 196-179 339-441 339" id="aq"/><g id="l"><use transform="matrix(0.010416666666666668,0,0,0.010416666666666668,0,0)" xlink:href="#aj"/><use transform="matrix(0.010416666666666668,0,0,0.010416666666666668,15.395833333333336,0)" xlink:href="#ab"/><use transform="matrix(0.010416666666666668,0,0,0.010416666666666668,27.833333333333336,0)" xlink:href="#ak"/><use transform="matrix(0.010416666666666668,0,0,0.010416666666666668,35.10416666666667,0)" xlink:href="#ab"/><use transform="matrix(0.010416666666666668,0,0,0.010416666666666668,47.54166666666667,0)" xlink:href="#ae"/><use transform="matrix(0.010416666666666668,0,0,0.010416666666666668,60.14583333333334,0)" xlink:href="#aq"/><use transform="matrix(0.010416666666666668,0,0,0.010416666666666668,71.40625000000001,0)" xlink:href="#ab"/></g><path d="M577 24c-279 0-473-224-473-580 0-354 195-576 474-576 218 0 287 134 324 193h14v-551h180V0H922v-173h-20C865-111 790 24 577 24zm27-161c203 0 314-172 314-421 0-247-108-413-314-413-212 0-317 181-317 413 0 235 108 421 317 421" id="ar"/><g id="m"><use transform="matrix(0.010416666666666668,0,0,0.010416666666666668,0,0)" xlink:href="#ac"/><use transform="matrix(0.010416666666666668,0,0,0.010416666666666668,19.270833333333336,0)" xlink:href="#ap"/><use transform="matrix(0.010416666666666668,0,0,0.010416666666666668,32.0625,0)" xlink:href="#ar"/><use transform="matrix(0.010416666666666668,0,0,0.010416666666666668,45.12499999999999,0)" xlink:href="#Z"/><use transform="matrix(0.010416666666666668,0,0,0.010416666666666668,57.10416666666667,0)" xlink:href="#am"/></g><path d="M180 0v-1490h510c348 0 508 209 508 474 0 266-160 477-507 477H370V0H180zm190-706h312c236 0 327-133 327-310 0-176-91-307-329-307H370v617" id="as"/><path d="M338-670V0H158v-1490h180v566c73-149 190-208 336-208 226 0 379 139 379 422V0H872v-695c0-172-96-275-252-275-161 0-282 109-282 300" id="at"/><path d="M180 0v-1490h908v168H370v486h669v168H370v500h727V0H180" id="au"/><g id="n"><use transform="matrix(0.009114583333333334,0,0,0.009114583333333334,0,0)" xlink:href="#as"/><use transform="matrix(0.009114583333333334,0,0,0.009114583333333334,11.921875,0)" xlink:href="#at"/><use transform="matrix(0.009114583333333334,0,0,0.009114583333333334,22.686197916666668,0)" xlink:href="#ao"/><use transform="matrix(0.009114583333333334,0,0,0.009114583333333334,33.177083333333336,0)" xlink:href="#aq"/><use transform="matrix(0.009114583333333334,0,0,0.009114583333333334,43.02994791666667,0)" xlink:href="#ad"/><use transform="matrix(0.009114583333333334,0,0,0.009114583333333334,47.55078125,0)" xlink:href="#ag"/><use transform="matrix(0.009114583333333334,0,0,0.009114583333333334,58.21484375000001,0)" xlink:href="#aq"/><use transform="matrix(0.009114583333333334,0,0,0.009114583333333334,68.06770833333334,0)" xlink:href="#au"/><use transform="matrix(0.009114583333333334,0,0,0.009114583333333334,79.28776041666667,0)" xlink:href="#ae"/><use transform="matrix(0.009114583333333334,0,0,0.009114583333333334,90.31640625,0)" xlink:href="#ai"/><use transform="matrix(0.009114583333333334,0,0,0.009114583333333334,101.76432291666667,0)" xlink:href="#ad"/><use transform="matrix(0.009114583333333334,0,0,0.009114583333333334,106.28515625,0)" xlink:href="#ae"/><use transform="matrix(0.009114583333333334,0,0,0.009114583333333334,117.31380208333333,0)" xlink:href="#ab"/></g><path d="M180 0v-1490h528c311 0 458 177 458 395 0 191-114 278-244 313v14c139 9 302 137 302 371 0 225-148 397-499 397H180zm190-168h350c232 0 321-102 321-231 0-149-120-277-311-277H370v508zm0-668h328c160 0 286-101 286-255 0-129-87-231-280-231H370v486" id="av"/><g id="o"><use transform="matrix(0.010416666666666668,0,0,0.010416666666666668,0,0)" xlink:href="#av"/><use transform="matrix(0.010416666666666668,0,0,0.010416666666666668,13.958333333333336,0)" xlink:href="#Z"/><use transform="matrix(0.010416666666666668,0,0,0.010416666666666668,25.937500000000004,0)" xlink:href="#aq"/><use transform="matrix(0.010416666666666668,0,0,0.010416666666666668,37.19791666666667,0)" xlink:href="#ab"/><use transform="matrix(0.010416666666666668,0,0,0.010416666666666668,49.63541666666667,0)" xlink:href="#af"/><use transform="matrix(0.010416666666666668,0,0,0.010416666666666668,63.32291666666667,0)" xlink:href="#ag"/><use transform="matrix(0.010416666666666668,0,0,0.010416666666666668,75.51041666666667,0)" xlink:href="#ah"/><use transform="matrix(0.010416666666666668,0,0,0.010416666666666668,83.1875,0)" xlink:href="#ab"/><use transform="matrix(0.010416666666666668,0,0,0.010416666666666668,95.62499999999999,0)" xlink:href="#ab"/><use transform="matrix(0.010416666666666668,0,0,0.010416666666666668,108.0625,0)" xlink:href="#ae"/><use transform="matrix(0.010416666666666668,0,0,0.010416666666666668,120.66666666666669,0)" xlink:href="#aq"/></g><g id="p"><use transform="matrix(0.010416666666666668,0,0,0.010416666666666668,0,0)" xlink:href="#au"/><use transform="matrix(0.010416666666666668,0,0,0.010416666666666668,12.822916666666668,0)" xlink:href="#ae"/><use transform="matrix(0.010416666666666668,0,0,0.010416666666666668,25.427083333333336,0)" xlink:href="#ab"/><use transform="matrix(0.010416666666666668,0,0,0.010416666666666668,37.864583333333336,0)" xlink:href="#aa"/><use transform="matrix(0.010416666666666668,0,0,0.010416666666666668,56.55208333333334,0)" xlink:href="#ad"/><use transform="matrix(0.010416666666666668,0,0,0.010416666666666668,61.71875000000001,0)" xlink:href="#ab"/><use transform="matrix(0.010416666666666668,0,0,0.010416666666666668,74.15625000000001,0)" xlink:href="#aq"/></g><path d="M370-1490V0H180v-1490h190" id="aw"/><g id="q"><use transform="matrix(0.010416666666666668,0,0,0.010416666666666668,0,0)" xlink:href="#aw"/><use transform="matrix(0.010416666666666668,0,0,0.010416666666666668,6.041666666666667,0)" xlink:href="#an"/><use transform="matrix(0.010416666666666668,0,0,0.010416666666666668,12.812500000000002,0)" xlink:href="#ab"/><use transform="matrix(0.010416666666666668,0,0,0.010416666666666668,25.250000000000004,0)" xlink:href="#aa"/><use transform="matrix(0.010416666666666668,0,0,0.010416666666666668,43.93750000000001,0)" xlink:href="#aq"/></g><path d="M571 0L49-1490h339c138 427 271 775 384 1244 111-471 237-815 371-1244h337L970 0H571" id="ax"/><path d="M128 0v-1118h300V0H128zm150-1264c-91 0-165-68-165-154 0-85 74-154 165-154 90 0 165 69 165 154 0 86-75 154-165 154" id="ay"/><path d="M361 0L31-1118h315c68 295 127 523 188 845 63-317 128-551 199-845h276c71 296 131 525 196 846 57-321 119-552 186-846h319L1378 0h-305c-73-261-148-486-204-771C813-484 740-261 666 0H361" id="az"/><g id="r"><use transform="matrix(0.010850694444444444,0,0,0.010850694444444444,0,0)" xlink:href="#ax"/><use transform="matrix(0.010850694444444444,0,0,0.010850694444444444,16.590711805555554,0)" xlink:href="#ay"/><use transform="matrix(0.010850694444444444,0,0,0.010850694444444444,22.61284722222222,0)" xlink:href="#I"/><use transform="matrix(0.010850694444444444,0,0,0.010850694444444444,35.546875,0)" xlink:href="#az"/></g><g id="s"><use transform="matrix(0.010416666666666668,0,0,0.010416666666666668,0,0)" xlink:href="#aj"/><use transform="matrix(0.010416666666666668,0,0,0.010416666666666668,15.395833333333336,0)" xlink:href="#ad"/><use transform="matrix(0.010416666666666668,0,0,0.010416666666666668,20.562500000000004,0)" xlink:href="#ak"/><use transform="matrix(0.010416666666666668,0,0,0.010416666666666668,27.625000000000007,0)" xlink:href="#ak"/><use transform="matrix(0.010416666666666668,0,0,0.010416666666666668,35.52083333333334,0)" xlink:href="#ad"/><use transform="matrix(0.010416666666666668,0,0,0.010416666666666668,40.68750000000001,0)" xlink:href="#ag"/><use transform="matrix(0.010416666666666668,0,0,0.010416666666666668,52.87500000000001,0)" xlink:href="#al"/><use transform="matrix(0.010416666666666668,0,0,0.010416666666666668,65.48958333333334,0)" xlink:href="#am"/><use transform="matrix(0.010416666666666668,0,0,0.010416666666666668,70.96875000000001,0)" xlink:href="#an"/><use transform="matrix(0.010416666666666668,0,0,0.010416666666666668,77.94791666666669,0)" xlink:href="#af"/><use transform="matrix(0.010416666666666668,0,0,0.010416666666666668,91.63541666666667,0)" xlink:href="#ag"/><use transform="matrix(0.010416666666666668,0,0,0.010416666666666668,103.82291666666667,0)" xlink:href="#ah"/><use transform="matrix(0.010416666666666668,0,0,0.010416666666666668,111.50000000000001,0)" xlink:href="#ab"/><use transform="matrix(0.010416666666666668,0,0,0.010416666666666668,123.93750000000001,0)" xlink:href="#ab"/><use transform="matrix(0.010416666666666668,0,0,0.010416666666666668,136.37500000000003,0)" xlink:href="#ae"/></g><path d="M180 0v-1490h190v1322h690V0H180" id="aA"/><path d="M481 0L54-1118h197c107 314 236 620 325 951 87-331 217-637 324-951h197L670 0H481" id="aB"/><g id="t"><use transform="matrix(0.010416666666666668,0,0,0.010416666666666668,0,0)" xlink:href="#aA"/><use transform="matrix(0.010416666666666668,0,0,0.010416666666666668,12.062500000000002,0)" xlink:href="#ab"/><use transform="matrix(0.010416666666666668,0,0,0.010416666666666668,24.083333333333336,0)" xlink:href="#aB"/><use transform="matrix(0.010416666666666668,0,0,0.010416666666666668,35.65625,0)" xlink:href="#ab"/><use transform="matrix(0.010416666666666668,0,0,0.010416666666666668,48.09374999999999,0)" xlink:href="#am"/><use transform="matrix(0.010416666666666668,0,0,0.010416666666666668,53.260416666666664,0)" xlink:href="#af"/><use transform="matrix(0.010416666666666668,0,0,0.010416666666666668,66.94791666666667,0)" xlink:href="#ab"/><use transform="matrix(0.010416666666666668,0,0,0.010416666666666668,79.38541666666667,0)" xlink:href="#am"/><use transform="matrix(0.010416666666666668,0,0,0.010416666666666668,84.55208333333334,0)" xlink:href="#ab"/><use transform="matrix(0.010416666666666668,0,0,0.010416666666666668,96.98958333333334,0)" xlink:href="#ag"/><use transform="matrix(0.010416666666666668,0,0,0.010416666666666668,109.17708333333334,0)" xlink:href="#an"/><use transform="matrix(0.010416666666666668,0,0,0.010416666666666668,116.15625000000001,0)" xlink:href="#af"/><use transform="matrix(0.010416666666666668,0,0,0.010416666666666668,129.84375000000003,0)" xlink:href="#ag"/><use transform="matrix(0.010416666666666668,0,0,0.010416666666666668,142.03125000000003,0)" xlink:href="#ah"/><use transform="matrix(0.010416666666666668,0,0,0.010416666666666668,149.70833333333337,0)" xlink:href="#ab"/><use transform="matrix(0.010416666666666668,0,0,0.010416666666666668,162.14583333333337,0)" xlink:href="#ab"/><use transform="matrix(0.010416666666666668,0,0,0.010416666666666668,174.58333333333334,0)" xlink:href="#ae"/></g><path d="M600 0L52-1490h200c166 485 304 806 458 1336 156-533 285-846 449-1336h202L819 0H600" id="aC"/><path d="M409 0L70-1118h191c89 329 165 560 243 925 75-353 154-601 240-925h192c85 325 161 564 235 922 77-354 157-598 244-922h191L1267 0h-179c-86-307-176-590-250-913C763-588 675-308 588 0H409" id="aD"/><path d="M180 0v-1490h510c348 0 508 194 508 460 0 198-88 351-276 417L1256 0h-220L726-579c-117 2-238 0-356 1V0H180zm190-747h312c235 0 327-108 327-283 0-177-92-293-329-293H370v576" id="aE"/><g id="u"><use transform="matrix(0.010416666666666668,0,0,0.010416666666666668,0,0)" xlink:href="#aC"/><use transform="matrix(0.010416666666666668,0,0,0.010416666666666668,14.718750000000002,0)" xlink:href="#ad"/><use transform="matrix(0.010416666666666668,0,0,0.010416666666666668,19.885416666666668,0)" xlink:href="#ab"/><use transform="matrix(0.010416666666666668,0,0,0.010416666666666668,31.9375,0)" xlink:href="#aD"/><use transform="matrix(0.010416666666666668,0,0,0.010416666666666668,49.395833333333336,0)" xlink:href="#aE"/><use transform="matrix(0.010416666666666668,0,0,0.010416666666666668,62.8125,0)" xlink:href="#ab"/><use transform="matrix(0.010416666666666668,0,0,0.010416666666666668,75.25,0)" xlink:href="#ae"/><use transform="matrix(0.010416666666666668,0,0,0.010416666666666668,87.85416666666667,0)" xlink:href="#ar"/><use transform="matrix(0.010416666666666668,0,0,0.010416666666666668,100.91666666666667,0)" xlink:href="#ab"/><use transform="matrix(0.010416666666666668,0,0,0.010416666666666668,113.35416666666669,0)" xlink:href="#ah"/><use transform="matrix(0.010416666666666668,0,0,0.010416666666666668,121.03125,0)" xlink:href="#ab"/><use transform="matrix(0.010416666666666668,0,0,0.010416666666666668,133.46875,0)" xlink:href="#ah"/></g><g id="v"><use transform="matrix(0.010850694444444444,0,0,0.010850694444444444,0,0)" xlink:href="#aC"/><use transform="matrix(0.010850694444444444,0,0,0.010850694444444444,15.33203125,0)" xlink:href="#ad"/><use transform="matrix(0.010850694444444444,0,0,0.010850694444444444,20.713975694444443,0)" xlink:href="#ab"/><use transform="matrix(0.010850694444444444,0,0,0.010850694444444444,33.268229166666664,0)" xlink:href="#aD"/></g><g id="w"><use transform="matrix(0.010850694444444444,0,0,0.010850694444444444,0,0)" xlink:href="#ah"/><use transform="matrix(0.010850694444444444,0,0,0.010850694444444444,7.996961805555555,0)" xlink:href="#ab"/><use transform="matrix(0.010850694444444444,0,0,0.010850694444444444,20.95269097222222,0)" xlink:href="#ae"/><use transform="matrix(0.010850694444444444,0,0,0.010850694444444444,34.08203125,0)" xlink:href="#ar"/><use transform="matrix(0.010850694444444444,0,0,0.010850694444444444,47.68880208333333,0)" xlink:href="#ab"/><use transform="matrix(0.010850694444444444,0,0,0.010850694444444444,60.644531249999986,0)" xlink:href="#ah"/><use transform="matrix(0.010850694444444444,0,0,0.010850694444444444,68.64149305555554,0)" xlink:href="#ab"/><use transform="matrix(0.010850694444444444,0,0,0.010850694444444444,81.59722222222221,0)" xlink:href="#ah"/></g><g id="x"><use transform="matrix(0.010850694444444444,0,0,0.010850694444444444,0,0)" xlink:href="#ad"/><use transform="matrix(0.010850694444444444,0,0,0.010850694444444444,5.381944444444445,0)" xlink:href="#ae"/><use transform="matrix(0.010850694444444444,0,0,0.010850694444444444,18.51128472222222,0)" xlink:href="#an"/><use transform="matrix(0.010850694444444444,0,0,0.010850694444444444,25.56423611111111,0)" xlink:href="#ab"/><use transform="matrix(0.010850694444444444,0,0,0.010850694444444444,38.51996527777778,0)" xlink:href="#ah"/><use transform="matrix(0.010850694444444444,0,0,0.010850694444444444,47.233072916666664,0)" xlink:href="#ak"/><use transform="matrix(0.010850694444444444,0,0,0.010850694444444444,55.11067708333333,0)" xlink:href="#Z"/><use transform="matrix(0.010850694444444444,0,0,0.010850694444444444,67.58897569444444,0)" xlink:href="#ag"/><use transform="matrix(0.010850694444444444,0,0,0.010850694444444444,80.28428819444444,0)" xlink:href="#ab"/></g><g id="y"><use transform="matrix(0.010416666666666668,0,0,0.010416666666666668,0,0)" xlink:href="#Y"/><use transform="matrix(0.010416666666666668,0,0,0.010416666666666668,15.916666666666668,0)" xlink:href="#Z"/><use transform="matrix(0.010416666666666668,0,0,0.010416666666666668,27.895833333333336,0)" xlink:href="#aa"/><use transform="matrix(0.010416666666666668,0,0,0.010416666666666668,46.583333333333336,0)" xlink:href="#ab"/><use transform="matrix(0.010416666666666668,0,0,0.010416666666666668,59.02083333333334,0)" xlink:href="#af"/><use transform="matrix(0.010416666666666668,0,0,0.010416666666666668,72.70833333333334,0)" xlink:href="#ag"/><use transform="matrix(0.010416666666666668,0,0,0.010416666666666668,84.89583333333334,0)" xlink:href="#ah"/><use transform="matrix(0.010416666666666668,0,0,0.010416666666666668,92.57291666666667,0)" xlink:href="#ab"/><use transform="matrix(0.010416666666666668,0,0,0.010416666666666668,105.01041666666667,0)" xlink:href="#ab"/><use transform="matrix(0.010416666666666668,0,0,0.010416666666666668,117.44791666666669,0)" xlink:href="#ae"/></g><g id="z"><use transform="matrix(0.010416666666666668,0,0,0.010416666666666668,0,0)" xlink:href="#ac"/><use transform="matrix(0.010416666666666668,0,0,0.010416666666666668,19.270833333333336,0)" xlink:href="#ab"/><use transform="matrix(0.010416666666666668,0,0,0.010416666666666668,31.708333333333336,0)" xlink:href="#ae"/><use transform="matrix(0.010416666666666668,0,0,0.010416666666666668,44.31249999999999,0)" xlink:href="#al"/><use transform="matrix(0.010416666666666668,0,0,0.010416666666666668,56.92708333333334,0)" xlink:href="#af"/><use transform="matrix(0.010416666666666668,0,0,0.010416666666666668,70.61458333333334,0)" xlink:href="#ag"/><use transform="matrix(0.010416666666666668,0,0,0.010416666666666668,82.80208333333334,0)" xlink:href="#ah"/><use transform="matrix(0.010416666666666668,0,0,0.010416666666666668,90.47916666666667,0)" xlink:href="#ab"/><use transform="matrix(0.010416666666666668,0,0,0.010416666666666668,102.91666666666667,0)" xlink:href="#ab"/><use transform="matrix(0.010416666666666668,0,0,0.010416666666666668,115.35416666666669,0)" xlink:href="#ae"/></g><path d="M158 418v-1536h174v179h20c37-59 106-193 324-193 279 0 474 222 474 576 0 356-194 580-473 580-213 0-288-135-325-197h-14v591H158zm492-555c209 0 317-186 317-421 0-232-105-413-317-413-206 0-314 166-314 413 0 249 111 421 314 421" id="aF"/><path d="M180 0v-1490h190v644h782v-644h190V0h-190v-678H370V0H180" id="aG"/><g id="A"><use transform="matrix(0.010416666666666668,0,0,0.010416666666666668,0,0)" xlink:href="#aw"/><use transform="matrix(0.010416666666666668,0,0,0.010416666666666668,5.729166666666667,0)" xlink:href="#ae"/><use transform="matrix(0.010416666666666668,0,0,0.010416666666666668,18.333333333333336,0)" xlink:href="#aF"/><use transform="matrix(0.010416666666666668,0,0,0.010416666666666668,31.395833333333336,0)" xlink:href="#al"/><use transform="matrix(0.010416666666666668,0,0,0.010416666666666668,44.01041666666667,0)" xlink:href="#an"/><use transform="matrix(0.010416666666666668,0,0,0.010416666666666668,50.989583333333336,0)" xlink:href="#aG"/><use transform="matrix(0.010416666666666668,0,0,0.010416666666666668,66.84375000000001,0)" xlink:href="#Z"/><use transform="matrix(0.010416666666666668,0,0,0.010416666666666668,78.82291666666669,0)" xlink:href="#ae"/><use transform="matrix(0.010416666666666668,0,0,0.010416666666666668,91.42708333333336,0)" xlink:href="#ar"/><use transform="matrix(0.010416666666666668,0,0,0.010416666666666668,104.48958333333336,0)" xlink:href="#am"/><use transform="matrix(0.010416666666666668,0,0,0.010416666666666668,109.65625000000003,0)" xlink:href="#ab"/><use transform="matrix(0.010416666666666668,0,0,0.010416666666666668,122.09375000000003,0)" xlink:href="#ah"/></g><g id="B"><use transform="matrix(0.010850694444444444,0,0,0.010850694444444444,0,0)" xlink:href="#ad"/><use transform="matrix(0.010850694444444444,0,0,0.010850694444444444,5.381944444444445,0)" xlink:href="#ae"/><use transform="matrix(0.010850694444444444,0,0,0.010850694444444444,18.51128472222222,0)" xlink:href="#aF"/><use transform="matrix(0.010850694444444444,0,0,0.010850694444444444,32.11805555555556,0)" xlink:href="#al"/><use transform="matrix(0.010850694444444444,0,0,0.010850694444444444,45.25824652777778,0)" xlink:href="#an"/><use transform="matrix(0.010850694444444444,0,0,0.010850694444444444,52.31119791666667,0)" xlink:href="#aq"/></g><path d="M458 0L52-1490h194c108 439 233 855 324 1313 92-459 221-873 331-1313h216c110 438 234 854 330 1307 92-455 216-869 323-1307h196L1558 0h-221l-256-944c-26-95-50-200-73-331-22 122-44 223-73 331L680 0H458" id="aH"/><g id="C"><use transform="matrix(0.010416666666666668,0,0,0.010416666666666668,0,0)" xlink:href="#aH"/><use transform="matrix(0.010416666666666668,0,0,0.010416666666666668,19.937500000000004,0)" xlink:href="#Z"/><use transform="matrix(0.010416666666666668,0,0,0.010416666666666668,31.60416666666667,0)" xlink:href="#aB"/><use transform="matrix(0.010416666666666668,0,0,0.010416666666666668,43.177083333333336,0)" xlink:href="#ab"/></g><g id="D"><use transform="matrix(0.010416666666666668,0,0,0.010416666666666668,0,0)" xlink:href="#aA"/><use transform="matrix(0.010416666666666668,0,0,0.010416666666666668,12.062500000000002,0)" xlink:href="#ab"/><use transform="matrix(0.010416666666666668,0,0,0.010416666666666668,24.083333333333336,0)" xlink:href="#aB"/><use transform="matrix(0.010416666666666668,0,0,0.010416666666666668,35.65625,0)" xlink:href="#ab"/><use transform="matrix(0.010416666666666668,0,0,0.010416666666666668,48.09374999999999,0)" xlink:href="#am"/></g><path d="M763 24c-353 0-583-224-583-531v-983h190v968c0 214 149 370 393 370 243 0 391-156 391-370v-968h190v983c0 307-230 531-581 531" id="aI"/><g id="E"><use transform="matrix(0.008173828125000001,0,0,0.008173828125000001,0,0)" xlink:href="#aI"/><use transform="matrix(0.008173828125000001,0,0,0.008173828125000001,12.456914062500001,0)" xlink:href="#aw"/></g><path d="M783 20c-382 0-661-292-661-764 0-473 279-766 661-766 302 0 548 182 601 489h-190c-42-204-217-313-411-313-268 0-476 208-476 590 0 381 209 588 476 588 195 0 369-110 411-313h190c-52 303-296 489-601 489" id="aJ"/><g id="F"><use transform="matrix(0.008173828125000001,0,0,0.008173828125000001,0,0)" xlink:href="#aJ"/><use transform="matrix(0.008173828125000001,0,0,0.008173828125000001,12.228046875000002,0)" xlink:href="#ap"/><use transform="matrix(0.008173828125000001,0,0,0.008173828125000001,22.265507812500008,0)" xlink:href="#ae"/><use transform="matrix(0.008173828125000001,0,0,0.008173828125000001,32.15583984375,0)" xlink:href="#ak"/><use transform="matrix(0.008173828125000001,0,0,0.008173828125000001,38.35160156250001,0)" xlink:href="#ad"/><use transform="matrix(0.008173828125000001,0,0,0.008173828125000001,42.4058203125,0)" xlink:href="#ai"/><use transform="matrix(0.008173828125000001,0,0,0.008173828125000001,52.6721484375,0)" xlink:href="#aq"/></g><path d="M98-1322v-168h1126v168H757V0H567v-1322H98" id="aK"/><g id="G"><use transform="matrix(0.009114583333333334,0,0,0.009114583333333334,0,0)" xlink:href="#aK"/><use transform="matrix(0.009114583333333334,0,0,0.009114583333333334,10.591145833333334,0)" xlink:href="#ab"/><use transform="matrix(0.009114583333333334,0,0,0.009114583333333334,21.473958333333336,0)" xlink:href="#aa"/><use transform="matrix(0.009114583333333334,0,0,0.009114583333333334,37.825520833333336,0)" xlink:href="#aF"/><use transform="matrix(0.009114583333333334,0,0,0.009114583333333334,49.255208333333336,0)" xlink:href="#am"/><use transform="matrix(0.009114583333333334,0,0,0.009114583333333334,53.77604166666667,0)" xlink:href="#Z"/><use transform="matrix(0.009114583333333334,0,0,0.009114583333333334,64.2578125,0)" xlink:href="#an"/><use transform="matrix(0.009114583333333334,0,0,0.009114583333333334,70.18229166666666,0)" xlink:href="#ab"/><use transform="matrix(0.009114583333333334,0,0,0.009114583333333334,81.06510416666666,0)" xlink:href="#aE"/><use transform="matrix(0.009114583333333334,0,0,0.009114583333333334,92.80468749999999,0)" xlink:href="#ab"/><use transform="matrix(0.009114583333333334,0,0,0.009114583333333334,103.68749999999999,0)" xlink:href="#ae"/><use transform="matrix(0.009114583333333334,0,0,0.009114583333333334,114.71614583333331,0)" xlink:href="#ar"/><use transform="matrix(0.009114583333333334,0,0,0.009114583333333334,126.14583333333331,0)" xlink:href="#ab"/><use transform="matrix(0.009114583333333334,0,0,0.009114583333333334,137.02864583333331,0)" xlink:href="#ah"/><use transform="matrix(0.009114583333333334,0,0,0.009114583333333334,143.74609374999997,0)" xlink:href="#ab"/><use transform="matrix(0.009114583333333334,0,0,0.009114583333333334,154.62890624999997,0)" xlink:href="#ah"/></g></defs></g></svg>